<?xml version="1.0" standalone="no"?>
<!DOCTYPE svg PUBLIC "-//W3C//DTD SVG 20010904//EN"
 "http://www.w3.org/TR/2001/REC-SVG-20010904/DTD/svg10.dtd">
<svg version="1.0" xmlns="http://www.w3.org/2000/svg"
 width="512.000000pt" height="512.000000pt" viewBox="0 0 512.000000 512.000000"
 preserveAspectRatio="xMidYMid meet">

<g transform="translate(0.000000,512.000000) scale(0.100000,-0.100000)"
fill="#000000" stroke="none">
<path d="M2173 4679 c-113 -19 -239 -85 -318 -168 l-39 -41 -71 6 c-139 12
-272 -34 -371 -129 -51 -50 -64 -57 -131 -72 -107 -24 -236 -92 -306 -161 -87
-86 -147 -224 -147 -337 0 -22 -14 -45 -60 -94 -109 -116 -154 -237 -154 -408
1 -226 87 -414 250 -549 164 -136 381 -206 634 -206 l117 0 42 -85 c52 -106
151 -215 194 -215 36 0 87 49 87 83 0 15 -22 51 -58 94 -77 92 -105 152 -106
228 -1 90 34 155 142 267 49 51 92 101 95 111 8 22 -8 66 -31 83 -34 26 -77
17 -134 -31 -103 -84 -195 -213 -224 -312 l-15 -53 -124 0 c-137 0 -229 16
-329 56 -134 53 -254 151 -309 252 -74 136 -88 337 -33 459 41 89 49 93 77 36
36 -76 140 -173 238 -221 46 -23 90 -42 98 -42 11 0 12 -8 6 -37 -12 -57 -6
-156 13 -224 27 -97 88 -127 145 -70 33 34 34 37 14 111 -8 30 -15 75 -15 98
0 39 5 49 45 88 34 33 45 51 45 74 0 41 -35 75 -86 84 -131 23 -272 97 -330
173 -63 83 -86 244 -50 350 41 122 202 233 348 239 68 4 75 6 101 36 75 88
103 112 154 135 52 24 62 25 152 19 160 -12 144 -17 224 67 55 58 88 84 142
109 68 32 74 33 195 33 113 -1 134 -4 222 -33 l97 -33 68 33 c60 29 78 32 155
33 47 0 89 -3 92 -6 4 -3 -10 -33 -29 -65 -65 -108 -105 -293 -75 -349 16 -30
62 -47 95 -35 35 13 51 46 64 130 29 185 119 283 261 284 80 1 175 -19 226
-48 59 -33 84 -77 84 -147 0 -92 17 -104 170 -113 107 -6 189 -36 246 -88 55
-51 82 -108 100 -210 13 -77 16 -85 51 -113 82 -64 210 -201 233 -250 37 -77
39 -158 5 -234 l-28 -62 23 -119 c35 -183 21 -274 -56 -359 -34 -38 -121 -99
-128 -90 -1 2 -23 47 -49 99 -86 176 -253 333 -459 430 -78 37 -92 37 -129 1
-54 -54 -33 -104 64 -152 157 -79 303 -210 364 -325 86 -161 83 -320 -8 -511
-75 -158 -194 -254 -354 -288 -90 -19 -130 -19 -244 1 -85 14 -94 14 -117 -1
-37 -24 -49 -63 -30 -102 12 -25 26 -35 68 -49 70 -22 255 -30 345 -15 144 25
291 110 385 226 91 111 178 326 178 441 0 63 7 72 74 106 138 69 219 157 256
276 24 79 27 234 5 337 -14 64 -14 73 4 120 74 197 -7 410 -223 586 -36 30
-66 61 -66 69 0 65 -58 204 -112 273 -60 76 -199 147 -318 162 -78 11 -90 15
-90 33 0 36 -49 119 -94 160 -26 24 -71 55 -101 68 -104 48 -284 67 -385 41
-41 -11 -49 -10 -85 10 -109 60 -252 67 -380 18 l-70 -26 -70 20 c-129 38
-245 48 -352 30z"/>
<path d="M1839 4191 c-16 -16 -29 -38 -29 -49 0 -26 37 -130 57 -161 16 -24
15 -26 -18 -54 -121 -102 -313 -142 -516 -108 -61 11 -75 10 -101 -3 -33 -17
-42 -34 -42 -75 0 -39 36 -68 100 -83 75 -17 311 -17 380 1 80 19 207 81 268
130 l53 42 80 -41 c94 -46 152 -53 187 -20 58 54 32 109 -71 151 -116 46 -178
111 -207 214 -23 83 -88 109 -141 56z"/>
<path d="M2356 4137 c-30 -30 -34 -71 -11 -104 10 -14 45 -31 99 -47 185 -57
289 -175 320 -367 13 -78 96 -109 144 -54 21 25 24 35 18 78 -18 153 -104 306
-221 395 -76 57 -198 110 -275 119 -43 5 -51 3 -74 -20z"/>
<path d="M3247 4048 c-25 -20 -38 -64 -27 -92 13 -36 45 -52 130 -65 44 -7
105 -26 147 -46 134 -63 209 -157 264 -331 34 -106 55 -134 99 -134 42 0 59 9
76 41 13 26 13 36 -2 92 -73 283 -240 463 -491 527 -87 23 -172 26 -196 8z"/>
<path d="M2258 3670 c-36 -37 -34 -60 16 -178 65 -154 157 -268 303 -373 108
-78 168 -147 214 -245 51 -108 95 -128 157 -71 31 29 28 70 -12 154 l-35 72
47 6 c215 29 395 153 531 364 49 76 54 119 16 156 -48 49 -94 29 -155 -67 -64
-100 -175 -202 -267 -246 -265 -125 -561 37 -668 365 -29 92 -91 118 -147 63z"/>
<path d="M3467 2807 c-18 -6 -36 -27 -58 -68 -58 -109 -167 -187 -314 -224
-105 -28 -313 -26 -425 3 -151 39 -288 116 -417 233 -76 69 -115 77 -160 33
-39 -39 -28 -87 33 -141 l47 -42 -16 -38 c-8 -21 -103 -231 -211 -468 -123
-269 -196 -441 -196 -461 0 -18 9 -42 19 -55 19 -24 23 -24 220 -27 111 -2
201 -5 201 -8 0 -3 -99 -232 -220 -509 -121 -277 -220 -514 -220 -527 0 -47
62 -88 109 -73 12 3 293 337 626 741 623 757 620 753 599 808 -13 35 -47 41
-250 46 l-201 5 81 148 81 147 100 0 c55 0 117 3 137 6 36 6 37 6 66 -52 81
-160 228 -244 430 -244 75 0 85 2 107 25 32 31 32 75 2 111 -20 23 -30 27 -79
25 -68 -1 -147 13 -193 35 -40 19 -93 71 -117 115 l-17 31 71 35 c88 44 191
140 241 224 42 72 46 105 17 141 -23 30 -55 38 -93 25z m-1055 -367 c55 -27
124 -57 154 -66 l54 -15 -16 -32 c-9 -18 -57 -105 -105 -194 -84 -153 -97
-190 -83 -227 13 -34 47 -41 232 -46 l182 -5 -321 -390 c-176 -214 -330 -399
-341 -410 l-20 -20 10 20 c52 106 242 558 242 578 0 78 -27 87 -255 87 -107 0
-185 4 -183 9 12 33 344 761 347 761 1 0 48 -22 103 -50z"/>
</g>
</svg>
